<?xml version="1.0" encoding="UTF-8"?>
<svg xmlns="http://www.w3.org/2000/svg" xmlns:xlink="http://www.w3.org/1999/xlink" viewBox="0 0 516.55 494.09">
  <defs>
    <style>
      .cls-1 {
        fill: url(#linear-gradient-2);
      }

      .cls-2 {
        fill: url(#linear-gradient-6);
      }

      .cls-3 {
        fill: none;
        isolation: isolate;
      }

      .cls-4 {
        fill: #1c1d1d;
      }

      .cls-5 {
        fill: url(#linear-gradient-5);
      }

      .cls-6 {
        fill: url(#linear-gradient-3);
        mix-blend-mode: multiply;
        opacity: .7;
      }

      .cls-7 {
        fill: url(#linear-gradient-7);
      }

      .cls-8 {
        fill: url(#linear-gradient);
      }

      .cls-9 {
        fill: url(#linear-gradient-4);
      }

      .cls-10 {
        fill: #3e3a36;
      }
    </style>
    <linearGradient id="linear-gradient" x1="400.58" y1="413.97" x2="322.93" y2="124.17" gradientTransform="translate(-106.1 82) rotate(-22.75)" gradientUnits="userSpaceOnUse">
      <stop offset="0" stop-color="#754a70"/>
      <stop offset="1" stop-color="#9c6095"/>
    </linearGradient>
    <linearGradient id="linear-gradient-2" x1="560.78" y1="-37.82" x2="265.51" y2="318.49" gradientTransform="translate(-106.1 82) rotate(-22.75)" gradientUnits="userSpaceOnUse">
      <stop offset="0" stop-color="#fff"/>
      <stop offset="1" stop-color="#fff" stop-opacity="0"/>
    </linearGradient>
    <linearGradient id="linear-gradient-3" x1="414.93" y1="127.8" x2="225.74" y2="387.94" gradientTransform="translate(-106.1 82) rotate(-22.75)" gradientUnits="userSpaceOnUse">
      <stop offset="0" stop-color="#106f38"/>
      <stop offset="1" stop-color="#e3e422" stop-opacity="0"/>
    </linearGradient>
    <linearGradient id="linear-gradient-4" x1="173.74" y1="132.88" x2="180.45" y2="72.44" gradientTransform="translate(2.57 113.61) rotate(-22.75) scale(1 1.19)" gradientUnits="userSpaceOnUse">
      <stop offset="0" stop-color="#db7475"/>
      <stop offset="1" stop-color="#ee2d77"/>
    </linearGradient>
    <linearGradient id="linear-gradient-5" x1="183.98" y1="301.5" x2="166.22" y2="361.68" gradientTransform="translate(229.29 655.76) rotate(-22.75) scale(1 -1.19)" gradientUnits="userSpaceOnUse">
      <stop offset="0" stop-color="#db7475"/>
      <stop offset="1" stop-color="#ee2d77"/>
    </linearGradient>
    <linearGradient id="linear-gradient-6" x1="53.83" y1="135.89" x2="57.52" y2="102.72" gradientTransform="translate(2.57 113.61) rotate(-22.75) scale(1 1.19)" gradientUnits="userSpaceOnUse">
      <stop offset="0" stop-color="#3575ac"/>
      <stop offset="1" stop-color="#635f94"/>
    </linearGradient>
    <linearGradient id="linear-gradient-7" x1="59.92" y1="325.71" x2="50.06" y2="359.14" gradientTransform="translate(229.29 655.76) rotate(-22.75) scale(1 -1.19)" gradientUnits="userSpaceOnUse">
      <stop offset="0" stop-color="#3575ac"/>
      <stop offset="1" stop-color="#635f94"/>
    </linearGradient>
  </defs>
  <g class="cls-3">
    <g id="Layer_1" data-name="Layer 1">
      <g>
        <g>
          <path class="cls-4" d="m5.34,449.42l.32-44.04,8.43.06,18.52,31.22-4.47-.03,18.66-30.95,8.37.06-.19,44.04-9.56-.07.15-29.38h1.76s-14.9,24.63-14.9,24.63l-4.59-.03-14.86-24.84,2.14.02-.21,29.38-9.56-.07Z"/>
          <path class="cls-4" d="m75.62,441.75l23.97.17-.06,8.18-34.1-.25.32-44.04,33.28.24-.06,8.18-23.15-.17-.2,27.68Zm-.62-18.12l21.2.15-.06,7.93-21.2-.15.06-7.93Z"/>
          <path class="cls-4" d="m107.64,450.16l.32-44.04,20.01.15c4.78.03,8.99.98,12.63,2.83,3.64,1.85,6.47,4.42,8.5,7.71,2.03,3.29,3.03,7.17,3,11.66-.03,4.45-1.09,8.31-3.17,11.59-2.08,3.28-4.95,5.82-8.61,7.61-3.66,1.8-7.88,2.68-12.67,2.65l-20.01-.15Zm10.25-8.29l9.31.07c2.94.02,5.49-.52,7.66-1.61,2.17-1.1,3.86-2.67,5.07-4.71,1.21-2.05,1.83-4.45,1.85-7.22.02-2.81-.56-5.24-1.74-7.28-1.18-2.04-2.85-3.63-5-4.76-2.15-1.13-4.7-1.7-7.63-1.72l-9.31-.07-.2,27.31Z"/>
          <path class="cls-4" d="m159.61,450.54l.32-44.04,10.19.07-.32,44.04-10.19-.07Z"/>
          <path class="cls-4" d="m174.46,450.65l19.95-43.9,10.07.07,19.37,44.19-10.7-.08-15.82-39,4.03.03-16.45,38.77-10.44-.08Zm9.88-9.37l2.76-7.72,22.65.17,2.71,7.76-28.12-.21Z"/>
          <path class="cls-4" d="m246.25,451.17l.32-44.04,8.43.06,18.52,31.22-4.47-.03,18.66-30.95,8.37.06-.2,44.04-9.56-.07.15-29.38h1.76s-14.9,24.63-14.9,24.63l-4.59-.03-14.86-24.84,2.14.02-.21,29.38-9.56-.07Z"/>
          <path class="cls-4" d="m300.54,451.56l19.95-43.9,10.07.07,19.37,44.19-10.7-.08-15.82-39,4.03.03-16.45,38.77-10.44-.08Zm9.88-9.37l2.76-7.72,22.65.17,2.71,7.76-28.12-.21Z"/>
          <path class="cls-4" d="m368.99,452.82c-3.52-.03-6.9-.52-10.12-1.49-3.22-.97-5.82-2.21-7.77-3.74l3.52-7.65c1.88,1.36,4.1,2.47,6.68,3.35,2.57.88,5.18,1.33,7.83,1.35,2.01.01,3.64-.17,4.88-.56,1.24-.39,2.16-.94,2.75-1.65.59-.71.89-1.52.9-2.45,0-1.17-.45-2.11-1.36-2.81-.92-.7-2.13-1.27-3.64-1.73-1.51-.45-3.17-.88-4.99-1.29-1.82-.41-3.64-.92-5.46-1.52-1.82-.6-3.48-1.37-4.99-2.3-1.5-.93-2.72-2.16-3.65-3.68-.93-1.52-1.39-3.45-1.37-5.8.02-2.52.72-4.81,2.09-6.87s3.45-3.71,6.2-4.93c2.76-1.22,6.21-1.81,10.36-1.78,2.77.02,5.49.37,8.17,1.04,2.68.67,5.04,1.66,7.09,2.98l-3.2,7.72c-2.05-1.19-4.1-2.08-6.15-2.66-2.05-.58-4.06-.88-6.03-.89s-3.59.21-4.85.66c-1.26.45-2.17,1.04-2.72,1.77-.55.73-.83,1.58-.84,2.54,0,1.13.45,2.05,1.36,2.75.92.7,2.13,1.26,3.64,1.69,1.51.43,3.17.86,4.99,1.29,1.82.43,3.64.93,5.46,1.49,1.82.56,3.48,1.31,4.99,2.24,1.5.93,2.72,2.16,3.65,3.68.93,1.52,1.39,3.43,1.38,5.74-.02,2.48-.73,4.74-2.13,6.78-1.4,2.05-3.48,3.69-6.23,4.93-2.76,1.24-6.23,1.84-10.43,1.81Z"/>
          <path class="cls-4" d="m403.16,452.31l.26-35.74-14.09-.1.06-8.3,38.38.28-.06,8.3-14.09-.1-.26,35.74-10.19-.07Z"/>
          <path class="cls-4" d="m443.11,444.42l23.97.17-.06,8.18-34.1-.25.32-44.04,33.28.24-.06,8.18-23.15-.17-.2,27.68Zm-.62-18.13l21.2.16-.06,7.93-21.2-.16.06-7.93Z"/>
          <path class="cls-4" d="m475.14,452.84l.32-44.04,19.06.14c3.94.03,7.33.69,10.18,1.99,2.84,1.3,5.03,3.15,6.57,5.55,1.54,2.4,2.29,5.26,2.27,8.57-.02,3.27-.82,6.09-2.39,8.45-1.57,2.36-3.78,4.16-6.65,5.39-2.86,1.24-6.26,1.84-10.21,1.81l-13.4-.1,4.56-4.43-.12,16.74-10.19-.07Zm10.31-15.53l-4.5-4.81,12.84.09c3.15.02,5.5-.64,7.06-1.99,1.56-1.35,2.35-3.22,2.37-5.61.02-2.43-.75-4.33-2.29-5.68-1.54-1.35-3.89-2.04-7.03-2.06l-12.84-.09,4.57-4.81-.18,24.98Zm17.69,15.73l-10.89-16.06,10.88.08,11.02,16.06-11.01-.08Z"/>
        </g>
        <g>
          <path class="cls-8" d="m354.08,12.76c-69.95-28.64-147.94-7.44-194.45,47.17-4.74,5.54-9.14,11.46-13.17,17.71l7.34,2.98,39.22,16.07,1.06.43c12.94,5.28,27.76,3.71,39.09-4.46,26.01-18.75,60.82-24.07,92.73-11.04,49.2,20.15,72.74,76.28,52.63,125.47-11.57,28.29-35.04,48.08-62.2,55.96-2.73.8-5.5,1.48-8.3,2.04-13.84,2.74-25.57,11.82-30.91,24.88l-.66,1.62-16.07,39.3-3.03,7.4c12.33,2.38,24.7,3.36,36.94,2.97,65.39-1.86,126.75-41.47,153.11-105.98,35.7-87.23-6.08-186.86-93.34-222.52Z"/>
          <path class="cls-1" d="m354.08,12.76c-69.95-28.64-147.94-7.44-194.45,47.17-4.74,5.54-9.14,11.46-13.17,17.71l7.34,2.98c41.97-63.47,124.18-90.55,197.32-60.64,83.28,34.03,123.14,129.05,89.07,212.35-19.58,47.87-59.26,81.34-105.28,94.7-23.78,6.95-49.25,8.51-74.53,3.86l-3.03,7.4c12.33,2.38,24.7,3.36,36.94,2.97,65.39-1.86,126.75-41.47,153.11-105.98,35.7-87.23-6.08-186.86-93.34-222.52Z"/>
          <path class="cls-6" d="m343.01,61.51c-51.7-25.21-111.21-10.61-146.05,30.28-1.36,1.58-2.65,3.21-3.93,4.9l1.06.43c12.94,5.28,27.76,3.71,39.09-4.46,26.01-18.75,60.82-24.07,92.73-11.04,49.2,20.15,72.74,76.28,52.63,125.47-11.57,28.29-35.04,48.08-62.2,55.96-2.73.8-5.5,1.48-8.3,2.04-13.84,2.74-25.57,11.82-30.91,24.88l-.66,1.62c5.51.57,11.02.8,16.48.6,48.92-1.37,94.65-32.42,111.7-82.48,19.58-57.45-7.08-121.59-61.63-148.2Z"/>
          <g>
            <path class="cls-9" d="m313.75,162.53l-107.22,44.98-90.45-42.93,45.53-19.1c39.26-16.47,83.67-15.45,122.14,2.81l30.01,14.24Z"/>
            <path class="cls-5" d="m313.75,162.53l-107.22,44.98-32.75,94.61,45.53-19.1c39.26-16.47,69.65-48.87,83.58-89.1l10.87-31.39Z"/>
          </g>
          <g>
            <path class="cls-2" d="m163.22,225.67l-57.95,24.31-48.89-23.21,29.54-12.39c18.08-7.58,38.53-7.11,56.24,1.29l21.06,10Z"/>
            <path class="cls-7" d="m163.22,225.67l-57.95,24.31-17.7,51.14,29.54-12.39c18.08-7.58,32.08-22.5,38.49-41.03l7.63-22.03Z"/>
          </g>
        </g>
      </g>
    </g>
  </g>
</svg>